<svg width="16" height="16" viewBox="0 0 16 16" fill="none" xmlns="http://www.w3.org/2000/svg">
<path d="M7.99999 2.66666C8.1768 2.66666 8.34637 2.73689 8.47139 2.86192C8.59642 2.98694 8.66666 3.15651 8.66666 3.33332V7.33332H12.6667C12.8435 7.33332 13.013 7.40356 13.1381 7.52858C13.2631 7.65361 13.3333 7.82318 13.3333 7.99999C13.3333 8.1768 13.2631 8.34637 13.1381 8.47139C13.013 8.59642 12.8435 8.66666 12.6667 8.66666H8.66666V12.6667C8.66666 12.8435 8.59642 13.013 8.47139 13.1381C8.34637 13.2631 8.1768 13.3333 7.99999 13.3333C7.82318 13.3333 7.65361 13.2631 7.52858 13.1381C7.40356 13.013 7.33332 12.8435 7.33332 12.6667V8.66666H3.33332C3.15651 8.66666 2.98694 8.59642 2.86192 8.47139C2.73689 8.34637 2.66666 8.1768 2.66666 7.99999C2.66666 7.82318 2.73689 7.65361 2.86192 7.52858C2.98694 7.40356 3.15651 7.33332 3.33332 7.33332H7.33332V3.33332C7.33332 3.15651 7.40356 2.98694 7.52858 2.86192C7.65361 2.73689 7.82318 2.66666 7.99999 2.66666Z" fill="white"/>
</svg>
