<svg width="24" height="24" viewBox="0 0 24 24" fill="none" xmlns="http://www.w3.org/2000/svg">
<path d="M19.9999 17.0361V8.41159C19.9999 7.80833 19.6821 7.31723 19.0788 7.31723H7.79997C7.45975 7.31699 7.14302 7.49065 6.96046 7.77777L4.25334 12.0451C4.08786 12.3052 4.00002 12.607 4.00002 12.9152V17.0362C3.99966 17.2807 4.09651 17.5153 4.26934 17.6881C4.44217 17.8609 4.67677 17.9578 4.92118 17.9574H6.06652C6.21802 18.474 6.53249 18.9278 6.96317 19.2509C7.39382 19.5741 7.91754 19.7493 8.45585 19.7502C8.99581 19.7544 9.52202 19.5812 9.95397 19.2573C10.3859 18.9335 10.6996 18.4767 10.8469 17.9574H13.1496C13.3011 18.474 13.6157 18.9278 14.0464 19.2509C14.477 19.5741 15.0006 19.7493 15.5391 19.7502C16.0789 19.7544 16.6052 19.5812 17.0372 19.2573C17.469 18.9335 17.7828 18.4767 17.9302 17.9574H19.0773H19.0772C19.3219 17.9582 19.5569 17.8615 19.7301 17.6887C19.9033 17.5158 20.0005 17.281 20 17.0362L19.9999 17.0361ZM8.45581 18.2953C8.1827 18.2909 7.92202 18.1806 7.72892 17.9874C7.5357 17.7943 7.42534 17.5336 7.42097 17.2605C7.4218 16.9863 7.53121 16.7235 7.72504 16.5297C7.91897 16.3357 8.18166 16.2264 8.45584 16.2255C8.72896 16.2299 8.98976 16.3404 9.18286 16.5335C9.37596 16.7267 9.48644 16.9874 9.49081 17.2605C9.48998 17.5347 9.38057 17.7973 9.18674 17.9913C8.99281 18.1852 8.73012 18.2945 8.45581 18.2953V18.2953ZM10.0736 12.0652V12.0653C10.0736 12.1911 9.9717 12.293 9.84593 12.293H6.19737C6.11427 12.293 6.0377 12.2476 5.99775 12.1748C5.9578 12.1019 5.96064 12.013 6.00533 11.9429L7.92059 8.93321C7.96232 8.86765 8.03475 8.82794 8.11263 8.82794H9.84593C9.9717 8.82794 10.0736 8.92989 10.0736 9.05566V12.0652ZM15.5391 18.2883C15.1715 18.2883 14.8317 18.0923 14.6479 17.7739C14.4641 17.4555 14.4641 17.0632 14.6479 16.7448C14.8317 16.4266 15.1715 16.2304 15.5391 16.2304C15.811 16.2343 16.0706 16.344 16.2629 16.5364C16.4551 16.7287 16.5649 16.9883 16.569 17.2603C16.568 17.5329 16.4592 17.7942 16.2662 17.9868C16.0732 18.1795 15.8117 18.2879 15.5391 18.2884L15.5391 18.2883ZM17.4085 11.9259H17.4083C17.4083 12.1192 17.2516 12.2759 17.0583 12.2759H15.9827V13.3551C15.9827 13.5485 15.8258 13.7052 15.6325 13.7052H15.0139C14.8206 13.7052 14.6639 13.5485 14.6639 13.3551V12.2759H13.583C13.3897 12.2759 13.233 12.1192 13.233 11.9259V11.3073C13.233 11.114 13.3897 10.9573 13.583 10.9573H14.6621L14.6623 9.87644C14.6623 9.6831 14.819 9.52639 15.0123 9.52639H15.6308C15.7237 9.52639 15.8127 9.56326 15.8784 9.62893C15.944 9.69449 15.9809 9.78363 15.9809 9.87644V10.9573H17.0601C17.1529 10.9573 17.2419 10.9942 17.3076 11.0598C17.3733 11.1254 17.4101 11.2145 17.4101 11.3073L17.4085 11.9259Z" fill="#878B93"/>
<path d="M11.3736 4C10.978 4 10.5985 4.15719 10.3186 4.43705C10.0387 4.71681 9.88156 5.09639 9.88156 5.49208V6.15142H12.8657V5.49375C12.8662 5.09782 12.7092 4.71779 12.4294 4.43766C12.1495 4.15743 11.7697 4 11.3736 4Z" fill="#878B93"/>
</svg>
