<svg width="18" height="24" viewBox="0 0 18 24" fill="none" xmlns="http://www.w3.org/2000/svg">
<path d="M16.4055 11.6361C16.4055 11.6361 16.7097 15.2434 13.9251 17.1054C13.9251 17.1054 19.3773 6.35337 7.72408 0C7.72408 0 9.3621 2.76946 5.52446 6.09737C2.31865 8.86684 -5.30973 18.0133 5.89882 23.2727C5.89882 23.2727 1.35931 17.3614 6.99855 14.1033C6.99855 14.1033 4.84578 17.5476 8.70676 20.4567C11.0001 18.0829 10.3918 16.8728 10.3918 16.8728C10.3918 16.8728 13.7145 19.5258 11.2576 23.2728C11.2576 23.2728 20.5943 21.0385 16.4056 11.6362L16.4055 11.6361Z" fill="#F0864B"/>
</svg>
