<svg width="27" height="26" viewBox="0 0 27 26" fill="none" xmlns="http://www.w3.org/2000/svg">
<path fill-rule="evenodd" clip-rule="evenodd" d="M16.4109 4.76862L16.4119 5.51824C19.1665 5.73413 20.9862 7.61119 20.9891 10.4898L21 18.9155C21.0039 22.054 19.0322 23.985 15.8718 23.99L8.15188 24C5.01119 24.004 3.01482 22.027 3.01087 18.8795L3.00001 10.5527C2.99606 7.65517 4.75153 5.78311 7.50617 5.53024L7.50518 4.78061C7.5042 4.34083 7.83001 4.01 8.26444 4.01C8.69886 4.009 9.02468 4.33883 9.02567 4.77861L9.02666 5.47826L14.8914 5.47027L14.8904 4.77062C14.8894 4.33084 15.2152 4.001 15.6497 4C16.0742 3.999 16.4099 4.32884 16.4109 4.76862ZM4.52148 10.8616L19.4696 10.8416V10.4918C19.4272 8.34283 18.349 7.21539 16.4138 7.04748L16.4148 7.81709C16.4148 8.24688 16.0801 8.5877 15.6556 8.5877C15.2212 8.5887 14.8943 8.24887 14.8943 7.81909L14.8934 7.0095L9.02863 7.01749L9.02962 7.82609C9.02962 8.25687 8.70479 8.5967 8.27036 8.5967C7.83594 8.5977 7.50913 8.25887 7.50913 7.82809L7.50815 7.05847C5.58286 7.25137 4.51753 8.38281 4.52049 10.5507L4.52148 10.8616ZM15.2399 15.4043V15.4153C15.2498 15.8751 15.625 16.2239 16.0801 16.2139C16.5244 16.2029 16.8789 15.8221 16.869 15.3623C16.8483 14.9225 16.4918 14.5637 16.0485 14.5647C15.5944 14.5747 15.2389 14.9445 15.2399 15.4043ZM16.0554 19.892C15.6013 19.882 15.235 19.5032 15.234 19.0435C15.2241 18.5837 15.5884 18.2029 16.0426 18.1919H16.0525C16.5165 18.1919 16.8927 18.5707 16.8927 19.0405C16.8937 19.5102 16.5185 19.891 16.0554 19.892ZM11.1721 15.4203C11.1919 15.8801 11.568 16.2389 12.0222 16.2189C12.4665 16.1979 12.821 15.8181 12.8012 15.3583C12.7903 14.9085 12.425 14.5587 11.9807 14.5597C11.5266 14.5797 11.1711 14.9605 11.1721 15.4203ZM12.0262 19.8471C11.572 19.8671 11.1968 19.5082 11.1761 19.0485C11.1761 18.5887 11.5305 18.2089 11.9847 18.1879C12.429 18.1869 12.7953 18.5367 12.8052 18.9855C12.8259 19.4463 12.4705 19.8261 12.0262 19.8471ZM7.10433 15.4553C7.12408 15.915 7.50025 16.2749 7.95442 16.2539C8.39872 16.2339 8.75317 15.8531 8.73243 15.3933C8.72256 14.9435 8.35725 14.5937 7.91196 14.5947C7.45779 14.6147 7.10334 14.9955 7.10433 15.4553ZM7.95837 19.8521C7.5042 19.8731 7.12901 19.5132 7.10828 19.0535C7.10729 18.5937 7.46273 18.2129 7.9169 18.1929C8.3612 18.1919 8.7275 18.5417 8.73737 18.9915C8.7581 19.4513 8.40365 19.8321 7.95837 19.8521Z" fill="#707D8B"/>
<circle cx="21" cy="6" r="6" fill="url(#paint0_linear_48_53)"/>
<defs>
<linearGradient id="paint0_linear_48_53" x1="26.3766" y1="0.701298" x2="16.4026" y2="9.58442" gradientUnits="userSpaceOnUse">
<stop stop-color="#96FBC4"/>
<stop offset="1" stop-color="#F9F586"/>
</linearGradient>
</defs>
</svg>
