<svg width="76" height="76" viewBox="0 0 76 76" fill="none" xmlns="http://www.w3.org/2000/svg">
<rect width="76" height="76" rx="38" fill="#0094DA"/>
<path fill-rule="evenodd" clip-rule="evenodd" d="M31.361 26.504C31.7719 25.8876 32.3286 25.3822 32.9817 25.0326C33.6349 24.683 34.3642 24.5001 35.105 24.5H40.895C41.6358 24.5001 42.3651 24.683 43.0183 25.0326C43.6714 25.3822 44.2281 25.8876 44.639 26.504L45.857 28.3325C45.994 28.5379 46.1796 28.7063 46.3973 28.8227C46.615 28.9391 46.8581 29 47.105 29H48.5C49.6935 29 50.8381 29.4741 51.682 30.318C52.5259 31.1619 53 32.3065 53 33.5V47C53 48.1935 52.5259 49.3381 51.682 50.182C50.8381 51.0259 49.6935 51.5 48.5 51.5H27.5C26.3065 51.5 25.1619 51.0259 24.318 50.182C23.4741 49.3381 23 48.1935 23 47V33.5C23 32.3065 23.4741 31.1619 24.318 30.318C25.1619 29.4741 26.3065 29 27.5 29H28.895C29.1419 29 29.385 28.9391 29.6027 28.8227C29.8204 28.7063 30.006 28.5379 30.143 28.3325L31.361 26.504ZM35 39.5C35 39.106 35.0776 38.7159 35.2284 38.3519C35.3791 37.988 35.6001 37.6573 35.8787 37.3787C36.1573 37.1001 36.488 36.8791 36.852 36.7284C37.2159 36.5776 37.606 36.5 38 36.5C38.394 36.5 38.7841 36.5776 39.1481 36.7284C39.512 36.8791 39.8427 37.1001 40.1213 37.3787C40.3999 37.6573 40.6209 37.988 40.7716 38.3519C40.9224 38.7159 41 39.106 41 39.5C41 40.2957 40.6839 41.0587 40.1213 41.6213C39.5587 42.1839 38.7957 42.5 38 42.5C37.2044 42.5 36.4413 42.1839 35.8787 41.6213C35.3161 41.0587 35 40.2957 35 39.5ZM38 33.5C36.4087 33.5 34.8826 34.1321 33.7574 35.2574C32.6321 36.3826 32 37.9087 32 39.5C32 41.0913 32.6321 42.6174 33.7574 43.7426C34.8826 44.8679 36.4087 45.5 38 45.5C39.5913 45.5 41.1174 44.8679 42.2426 43.7426C43.3679 42.6174 44 41.0913 44 39.5C44 37.9087 43.3679 36.3826 42.2426 35.2574C41.1174 34.1321 39.5913 33.5 38 33.5Z" fill="white"/>
</svg>
