<svg width="24" height="24" viewBox="0 0 24 24" fill="none" xmlns="http://www.w3.org/2000/svg">
<path d="M22.5801 14.5678C22.5801 14.761 22.5034 14.9463 22.3668 15.0829C22.2302 15.2194 22.0449 15.2962 21.8517 15.2962H1.45678C1.2636 15.2962 1.07833 15.2194 0.94173 15.0829C0.805131 14.9463 0.72839 14.761 0.72839 14.5678C0.72839 14.3746 0.805131 14.1893 0.94173 14.0527C1.07833 13.9162 1.2636 13.8394 1.45678 13.8394H5.1397C5.11282 13.5975 5.09914 13.3544 5.09873 13.111C5.09873 11.3724 5.7894 9.70497 7.0188 8.47557C8.2482 7.24617 9.91562 6.55551 11.6542 6.55551C13.3929 6.55551 15.0603 7.24617 16.2897 8.47557C17.5191 9.70497 18.2098 11.3724 18.2098 13.111C18.2094 13.3544 18.1957 13.5975 18.1688 13.8394H21.8517C22.0449 13.8394 22.2302 13.9162 22.3668 14.0527C22.5034 14.1893 22.5801 14.3746 22.5801 14.5678ZM18.9382 17.4814H4.37034C4.17716 17.4814 3.99189 17.5581 3.85529 17.6947C3.71869 17.8313 3.64195 18.0166 3.64195 18.2098C3.64195 18.4029 3.71869 18.5882 3.85529 18.7248C3.99189 18.8614 4.17716 18.9381 4.37034 18.9381H18.9382C19.1313 18.9381 19.3166 18.8614 19.4532 18.7248C19.5898 18.5882 19.6665 18.4029 19.6665 18.2098C19.6665 18.0166 19.5898 17.8313 19.4532 17.6947C19.3166 17.5581 19.1313 17.4814 18.9382 17.4814ZM7.36038 5.42468C7.40319 5.51029 7.46244 5.58663 7.53475 5.64934C7.60705 5.71205 7.69101 5.75991 7.78181 5.79018C7.87261 5.82045 7.96849 5.83253 8.06396 5.82575C8.15944 5.81896 8.25264 5.79344 8.33825 5.75063C8.42386 5.70783 8.5002 5.64858 8.56291 5.57627C8.62562 5.50396 8.67348 5.42001 8.70375 5.32921C8.73402 5.23841 8.7461 5.14253 8.73932 5.04706C8.73253 4.95158 8.70701 4.85838 8.6642 4.77277L7.93581 3.31599C7.84937 3.14309 7.69777 3.01162 7.51439 2.95049C7.331 2.88936 7.13085 2.90359 6.95795 2.99003C6.78505 3.07648 6.65358 3.22807 6.59245 3.41146C6.53132 3.59484 6.54555 3.795 6.63199 3.9679L7.36038 5.42468ZM1.85922 9.39259L3.316 10.121C3.48877 10.2074 3.68881 10.2217 3.87211 10.1607C4.05541 10.0996 4.20696 9.96825 4.29341 9.79548C4.37985 9.6227 4.39413 9.42266 4.33308 9.23936C4.27204 9.05606 4.14068 8.90452 3.96791 8.81807L2.51113 8.08968C2.42558 8.04687 2.33243 8.02134 2.23701 8.01453C2.14159 8.00772 2.04577 8.01977 1.95501 8.05C1.86425 8.08022 1.78033 8.12803 1.70804 8.19069C1.63576 8.25335 1.57652 8.32963 1.53372 8.41518C1.49091 8.50073 1.46538 8.59387 1.45857 8.68929C1.45176 8.78471 1.46381 8.88053 1.49404 8.97129C1.52426 9.06206 1.57207 9.14597 1.63473 9.21826C1.69738 9.29054 1.77367 9.34978 1.85922 9.39259ZM19.6665 10.1975C19.7794 10.1975 19.8906 10.1713 19.9916 10.121L21.4484 9.39259C21.5339 9.34978 21.6102 9.29054 21.6729 9.21826C21.7355 9.14597 21.7833 9.06206 21.8135 8.97129C21.8438 8.88053 21.8558 8.78471 21.849 8.68929C21.8422 8.59387 21.8167 8.50073 21.7739 8.41518C21.7311 8.32963 21.6718 8.25335 21.5995 8.19069C21.5273 8.12803 21.4433 8.08022 21.3526 8.05C21.2618 8.01977 21.166 8.00772 21.0706 8.01453C20.9752 8.02134 20.882 8.04687 20.7965 8.08968L19.3397 8.81807C19.1931 8.89163 19.0756 9.01251 19.0063 9.16114C18.937 9.30976 18.9198 9.47744 18.9576 9.63702C18.9955 9.7966 19.086 9.93875 19.2147 10.0405C19.3433 10.1422 19.5025 10.1975 19.6665 10.1975ZM14.9702 5.75063C15.0558 5.7935 15.149 5.81908 15.2445 5.82589C15.34 5.83271 15.4359 5.82064 15.5267 5.79036C15.6176 5.76009 15.7015 5.71221 15.7738 5.64946C15.8461 5.58672 15.9054 5.51033 15.9481 5.42468L16.6765 3.9679C16.7629 3.795 16.7772 3.59484 16.716 3.41146C16.6549 3.22807 16.5234 3.07648 16.3505 2.99003C16.1776 2.90359 15.9775 2.88936 15.7941 2.95049C15.6107 3.01162 15.4591 3.14309 15.3727 3.31599L14.6443 4.77277C14.6014 4.85837 14.5758 4.95158 14.569 5.04707C14.5622 5.14255 14.5743 5.23845 14.6046 5.32927C14.6348 5.42009 14.6827 5.50405 14.7455 5.57635C14.8082 5.64865 14.8846 5.70788 14.9702 5.75063Z" fill="white"/>
</svg>
