<svg width="25" height="24" viewBox="0 0 25 24" fill="none" xmlns="http://www.w3.org/2000/svg">
<path d="M6.08691 22.8075C7.34821 23.7803 9.45879 21.7836 11.621 18.993C10.8746 17.9946 10.1024 16.8427 9.22726 15.5627C6.62758 18.6859 4.69709 21.7067 6.087 22.8075H6.08691Z" fill="#4AA78B"/>
<path d="M22.8175 1.48273C20.7582 -0.130117 17.4893 0.586638 15.5331 3.09557C13.9373 5.14362 13.7055 7.72918 14.8124 9.49558C14.4263 9.90522 14.0145 10.3404 13.5769 10.8011C14.3233 11.5947 15.0183 12.3627 15.7133 13.1308C16.1509 12.4395 16.5884 11.774 16.9746 11.1852C18.9566 11.8252 21.4276 10.9804 23.0492 8.93237C24.9797 6.42344 24.9023 3.09557 22.8174 1.48277L22.8175 1.48273ZM21.6077 7.80593C21.4533 7.98522 21.2474 8.08754 21.0157 8.08754C20.8613 8.08754 20.7069 8.03629 20.5525 7.93397C20.2178 7.67789 20.1665 7.21717 20.4238 6.88432C21.196 5.91147 21.2989 4.73397 20.9385 4.19627C20.7069 3.86342 20.8098 3.40272 21.1445 3.17237C21.4791 2.94201 21.9424 3.04433 22.174 3.37719C22.9462 4.58039 22.7146 6.42363 21.6077 7.80594L21.6077 7.80593Z" fill="#4AA78B"/>
<path d="M10.6943 7.47306C10.9775 5.98826 10.4884 4.45235 9.40735 3.37697L6.24121 0.228216C5.95806 -0.0533928 5.52049 -0.0789288 5.18582 0.176966L5.13429 0.202502C4.77394 0.484111 4.72241 1.02179 5.03141 1.35446L8.01728 4.6057C8.35196 4.96409 8.30043 5.5273 7.9144 5.83446C7.55406 6.11607 7.03929 6.06482 6.73028 5.70642L3.84746 2.17376C3.56431 1.8409 3.07521 1.78983 2.74073 2.04572C2.40606 2.30179 2.32885 2.78803 2.58632 3.14643L5.3147 6.80714C5.59785 7.16553 5.52065 7.70323 5.16029 7.98483C4.77427 8.29197 4.20796 8.18965 3.92482 7.78001L1.47939 4.11948C1.22192 3.73555 0.707152 3.65877 0.346793 3.94019L0.295263 3.96573C-0.0135606 4.2218 -0.0907618 4.65697 0.114996 4.98964L2.43149 8.82964C3.22939 10.1352 4.5936 10.98 6.11221 11.0568L8.19709 11.1848C11.2343 15.9208 16.6913 24.676 19.0851 22.8328C21.4788 20.9896 14.246 13.6168 10.3592 9.52083L10.6943 7.47306Z" fill="#4AA78B"/>
</svg>
