<svg width="16" height="24" viewBox="0 0 16 24" fill="none" xmlns="http://www.w3.org/2000/svg">
<g clip-path="url(#clip0_1_673)">
<path d="M13.9389 0.200073H1.21243L1.09586 0.666231C-0.41911 6.95952 0.513147 9.65665 1.60865 12.7533C2.42453 15.051 3.33352 17.6481 3.33352 22.3764V23.0758H11.8178V22.3764C11.8178 17.615 12.7268 15.0176 13.5427 12.7533C14.6148 9.65653 15.5703 6.99288 14.0553 0.666231L13.9389 0.200073ZM12.6569 12.1207C11.841 14.4515 10.932 17.0487 10.8388 21.6772H4.31242C4.21926 17.0488 3.31024 14.4183 2.49436 12.1207C1.49218 9.25709 0.699565 6.99295 1.91165 1.59858H13.2396C14.4749 6.99301 13.659 9.29039 12.6567 12.1207H12.6569Z" fill="#7CA9D8"/>
<path d="M2.60985 7.35882V7.45869C2.74967 8.79049 3.12263 9.92279 3.63546 11.3213C4.35798 13.3857 5.24379 15.8831 5.52341 19.8789H9.67232C9.95197 15.8832 10.8145 13.3858 11.5603 11.3213C12.0498 9.92279 12.446 8.82397 12.5859 7.45869C12.6558 6.62625 12.6558 5.72715 12.516 4.69497C8.25052 4.09549 6.89862 8.8572 2.60986 7.35886L2.60985 7.35882Z" fill="#7CA9D8"/>
</g>
<defs>
<clipPath id="clip0_1_673">
<rect width="15.1505" height="23.3085" fill="white"/>
</clipPath>
</defs>
</svg>
