<svg width="28" height="24" viewBox="0 0 28 24" fill="none" xmlns="http://www.w3.org/2000/svg">
<path d="M7.51183 13.646L9.30882 9.88889C9.37423 9.79089 9.47223 9.69289 9.60281 9.69289C9.7334 9.69289 9.83163 9.7583 9.89681 9.88889L11.8244 13.9728L14.0135 8.35332C14.0789 8.22274 14.1769 8.12451 14.3404 8.15733C14.4709 8.15733 14.6018 8.25533 14.6343 8.38614L17.1501 15.9986L18.5877 13.8422C18.6531 13.7442 18.7511 13.7116 18.8491 13.7116H24.5667C26.3962 11.2939 30.0882 4.89032 24.1419 1.16576C18.9143 -2.1014 14.4711 2.83195 13.785 3.68153C13.7524 3.74694 13.6544 3.74694 13.589 3.68153C12.9025 2.79887 8.45917 -2.16727 3.23207 1.10013C-2.68149 4.82469 0.97767 11.1956 2.80727 13.646L7.51183 13.646Z" fill="#7CA9D8"/>
<path d="M19.0124 14.2995L17.3134 16.8807C17.248 16.9787 17.15 17.0113 17.052 17.0113H17.0194C16.8888 16.9787 16.7906 16.9133 16.758 16.7825L14.3077 9.39868L12.1187 14.9202C12.0861 15.0508 11.9553 15.1162 11.8247 15.1162C11.6941 15.1162 11.5633 15.0508 11.5307 14.9202L9.57026 10.7709L8.00209 14.1034C7.93668 14.2014 7.83868 14.2994 7.70809 14.2994H3.32993C5.97627 17.4032 12.8374 22.696 13.6215 23.2841C13.6541 23.3167 13.7195 23.3167 13.7521 23.2841C14.5362 22.6962 21.3645 17.4032 24.0436 14.2994L19.0124 14.2995Z" fill="#7CA9D8"/>
</svg>
