<svg width="10" height="12" viewBox="0 0 10 12" fill="none" xmlns="http://www.w3.org/2000/svg">
<path fill-rule="evenodd" clip-rule="evenodd" d="M0 4.85205C0 2.16877 2.24226 0 4.95448 0C7.67439 0 9.91667 2.16877 9.91667 4.85205C9.91667 6.20416 9.42492 7.45943 8.61554 8.52343C7.72263 9.69704 6.62212 10.7196 5.38329 11.5222C5.09979 11.7077 4.84394 11.7217 4.53273 11.5222C3.28693 10.7196 2.18639 9.69704 1.30113 8.52343C0.491155 7.45943 0 6.20416 0 4.85205ZM3.32163 5.00313C3.32163 5.90199 4.05516 6.60899 4.95448 6.60899C5.85445 6.60899 6.59505 5.90199 6.59505 5.00313C6.59505 4.11122 5.85445 3.36982 4.95448 3.36982C4.05516 3.36982 3.32163 4.11122 3.32163 5.00313Z" fill="#CBD3D1"/>
</svg>
