<svg width="17" height="20" viewBox="0 0 17 20" fill="none" xmlns="http://www.w3.org/2000/svg">
<g clip-path="url(#clip0_13_31)">
<path d="M11.6134 9.49677C11.018 9.49677 10.4684 9.6113 9.96458 9.81735V5.12294C9.96458 2.42087 7.76614 0.245331 5.08697 0.245331C2.40772 0.245331 0.209366 2.44377 0.209366 5.12294V13.7103C0.209366 16.4123 2.40781 18.5879 5.08697 18.5879C6.39233 18.5879 7.58299 18.0841 8.45321 17.2369C9.2776 18.0384 10.3767 18.5422 11.6134 18.5422C14.1094 18.5422 16.1246 16.527 16.1246 14.031C16.1246 11.5347 14.1094 9.49647 11.6134 9.49647L11.6134 9.49677ZM5.08697 17.42C3.0261 17.42 1.3543 15.7484 1.3543 13.6873L1.35446 9.40513H8.81972V10.4814C7.78928 11.3058 7.12512 12.5882 7.12512 14.0079C7.12512 14.8551 7.35418 15.6338 7.7663 16.2978C7.07944 17.0078 6.1177 17.4199 5.08705 17.4199L5.08697 17.42ZM8.24716 14.0079C8.24716 13.3209 8.45322 12.6798 8.79679 12.1531C9.09453 11.718 9.48382 11.3515 9.94177 11.0768C10.4227 10.8021 10.9952 10.6417 11.5905 10.6417C13.4454 10.6417 14.9568 12.1531 14.9568 14.0079H8.24716Z" fill="#161819"/>
</g>
<defs>
<clipPath id="clip0_13_31">
<rect width="16.3568" height="19.4237" fill="white"/>
</clipPath>
</defs>
</svg>
