<svg width="76" height="76" viewBox="0 0 76 76" fill="none" xmlns="http://www.w3.org/2000/svg">
<rect width="76" height="76" rx="38" fill="#38BBE1"/>
<g clip-path="url(#clip0_348_1557)">
<path d="M32.2705 55.1876H43.7273" stroke="white" stroke-width="3" stroke-linecap="round" stroke-linejoin="round"/>
<path d="M49.458 33.7032V36.5679C49.458 42.87 44.3017 48.0263 37.9996 48.0263C31.6975 48.0263 26.541 42.87 26.541 36.5679V33.7032" stroke="white" stroke-width="3" stroke-linecap="round" stroke-linejoin="round"/>
<path d="M38.0002 48.0266V55.1876" stroke="white" stroke-width="3" stroke-linecap="round" stroke-linejoin="round"/>
<path d="M38.0015 43.7294C37.0561 43.7271 36.1209 43.5349 35.2513 43.1644C34.3816 42.7938 33.5954 42.2523 32.9392 41.5719C31.5955 40.2168 30.8412 38.3864 30.8399 36.4783V26.5417C30.8362 25.6001 31.019 24.6671 31.3775 23.7966C31.7361 22.9261 32.2635 22.1352 32.9293 21.4694C33.5951 20.8037 34.3859 20.2763 35.2564 19.9177C36.127 19.5591 37.0599 19.3764 38.0015 19.3801C42.0172 19.3801 45.163 22.5258 45.163 26.5417V36.4783C45.163 40.4762 41.9501 43.7294 38.0015 43.7294Z" fill="white"/>
</g>
<defs>
<clipPath id="clip0_348_1557">
<rect width="38" height="38" fill="white" transform="translate(19 19)"/>
</clipPath>
</defs>
</svg>
