<svg width="15" height="17" viewBox="0 0 15 17" fill="none" xmlns="http://www.w3.org/2000/svg">
<path d="M14.4175 13.6745C14.4171 11.3972 12.8176 9.49531 10.6813 9.02782C11.0651 9.41633 11.3166 9.93512 11.3656 10.5106C11.8844 10.6269 12.2733 11.0904 12.2733 11.6435C12.2733 12.284 11.7522 12.8052 11.1116 12.8052C10.4709 12.8052 9.94987 12.2841 9.94987 11.6435C9.94987 11.1007 10.325 10.6447 10.8291 10.5179C10.7501 9.77343 10.2323 9.15848 9.53966 8.9364L4.75689 8.93628C4.02191 9.172 3.48546 9.85073 3.45978 10.6566C3.56324 10.7167 3.64691 10.8097 3.69826 10.9221C4.08002 11.1023 4.41747 11.4814 4.6755 12.0215C4.71871 12.1126 4.72434 12.215 4.69253 12.3088C4.84734 12.7075 4.9359 13.1427 4.9359 13.5085C4.9359 14.0208 4.9359 14.5053 4.37752 14.6298C4.31702 14.68 4.24137 14.7077 4.16171 14.7077H3.78857C3.60132 14.7077 3.44888 14.5553 3.44888 14.3682L3.45013 14.3441C3.46266 14.1687 3.61121 14.0286 3.78857 14.0286H4.16171C4.19979 14.0286 4.23736 14.0351 4.27319 14.0477C4.29561 14.0412 4.303 14.0361 4.303 14.0361C4.34471 13.9621 4.34471 13.6556 4.34471 13.5085C4.34471 13.2116 4.27031 12.8531 4.14005 12.5192C4.07253 12.4808 4.01817 12.4227 3.98435 12.3524C3.7579 11.8786 3.45016 11.5726 3.20002 11.5726C2.94438 11.5726 2.62135 11.9034 2.39616 12.3955C2.35933 12.4758 2.29483 12.5413 2.21529 12.5799C2.09768 12.8988 2.03305 13.227 2.03305 13.5082C2.03305 13.6317 2.03305 13.9604 2.0804 14.037C2.0809 14.037 2.09129 14.0435 2.12098 14.0508C2.15956 14.036 2.20102 14.0284 2.2426 14.0284H2.61647C2.78907 14.0284 2.93361 14.1585 2.95315 14.3285L2.95516 14.3322L2.95591 14.3546C2.95591 14.555 2.8036 14.7075 2.61647 14.7075H2.2426C2.16845 14.7075 2.09655 14.6827 2.03769 14.6376C1.82438 14.5974 1.67369 14.5031 1.57813 14.3498C1.4629 14.1643 1.44186 13.9208 1.44186 13.508C1.44186 13.1455 1.5254 12.7285 1.67746 12.3303C1.65517 12.245 1.66256 12.156 1.69976 12.0759C1.85808 11.7298 2.05923 11.4336 2.28167 11.2192C2.40391 11.1016 2.53518 11.0067 2.67257 10.9376C2.72442 10.8166 2.81448 10.7177 2.92408 10.655C2.93948 10.0393 3.18698 9.48136 3.58291 9.06376C1.52339 9.58768 0 11.4524 0 13.6745C0 16.0439 1.73137 16.1603 3.99879 16.1603C4.24591 16.1603 4.4998 16.1589 4.75869 16.1589H9.65978C9.91743 16.1589 10.1716 16.1603 10.4188 16.1603C12.6858 16.1603 14.4179 16.0441 14.4179 13.6745L14.4175 13.6745ZM10.2468 14.1721C10.2468 14.2339 10.191 14.2838 10.1218 14.2838H9.44269V14.9629C9.44269 15.0321 9.39246 15.0881 9.33096 15.0881H8.66062C8.59887 15.0881 8.54889 15.0318 8.54889 14.9629V14.2838H7.86963C7.80087 14.2838 7.74488 14.2339 7.74488 14.1721V13.502C7.74488 13.44 7.80112 13.3903 7.86963 13.3903H8.54889L8.54902 12.7111C8.54902 12.6419 8.59899 12.586 8.66074 12.586H9.33109C9.39246 12.586 9.44281 12.6422 9.44281 12.7111V13.3902H10.1219C10.1912 13.3902 10.2469 13.4399 10.2469 13.5019L10.2468 14.1721Z" fill="white"/>
<path d="M11.3194 4.11056C11.3194 6.38082 9.4789 8.22111 7.20866 8.22111C4.93831 8.22111 3.09796 6.38073 3.09796 4.11056C3.09796 1.84042 4.93841 0 7.20866 0C9.47887 0 11.3194 1.84039 11.3194 4.11056Z" fill="white"/>
<path d="M11.6477 11.6423C11.6477 11.9385 11.4076 12.1785 11.1115 12.1785C10.8154 12.1785 10.5754 11.9385 10.5754 11.6423C10.5754 11.3462 10.8154 11.1062 11.1115 11.1062C11.4076 11.1062 11.6477 11.3462 11.6477 11.6423Z" fill="white"/>
</svg>
