<svg width="18" height="16" viewBox="0 0 18 16" fill="none" xmlns="http://www.w3.org/2000/svg">
<path d="M16.7835 6.99718L8.97611 0.174622C8.70755 -0.0582073 8.31358 -0.0582073 8.06288 0.174622L0.237535 6.99718C-0.245985 7.42698 0.0584139 8.21479 0.703084 8.21479H2.40421V14.3569C2.40421 14.912 2.85189 15.3418 3.38913 15.3418H13.6319C14.187 15.3418 14.6168 14.8941 14.6168 14.3569V8.21511H16.318C16.9626 8.21511 17.267 7.42717 16.7835 6.99737L16.7835 6.99718ZM11.2145 9.7012C11.2145 9.80862 11.1249 9.89818 11.0175 9.89818H9.37005V11.5456C9.37005 11.653 9.28049 11.7426 9.17307 11.7426H7.84792C7.7405 11.7426 7.65094 11.653 7.65094 11.5456V9.89818H6.00362C5.8962 9.89818 5.80664 9.80862 5.80664 9.7012V8.37605C5.80664 8.26863 5.8962 8.17906 6.00362 8.17906H7.65107V6.53162C7.65107 6.4242 7.74063 6.33464 7.84805 6.33464H9.1732C9.28062 6.33464 9.37018 6.4242 9.37018 6.53162V8.17906H11.0175C11.1249 8.17906 11.2145 8.26863 11.2145 8.37605V9.7012Z" fill="white"/>
</svg>
