<svg width="13" height="17" viewBox="0 0 13 17" fill="none" xmlns="http://www.w3.org/2000/svg">
<path d="M3.41016 2.57049H8.7566C9.06499 2.57049 9.32209 2.31349 9.32209 2.00498V0.565514C9.32209 0.257113 9.0651 0 8.7566 0H3.41016C3.10177 0 2.84467 0.257003 2.84467 0.565514V1.98787C2.84467 2.3135 3.10166 2.57049 3.41016 2.57049Z" fill="white"/>
<path d="M8.1739 4.71163V3.47778H3.9927V4.71163C1.74791 5.00294 0 6.93945 0 9.27002V14.4796C0 15.4735 0.805395 16.279 1.79932 16.279H10.3673C11.3612 16.279 12.1667 15.4736 12.1667 14.4796V9.27002C12.1667 6.93942 10.4187 5.00296 8.17396 4.71163H8.1739ZM6.0833 13.9312C4.1812 13.9312 2.63895 12.389 2.63895 10.4867C2.63895 8.58449 4.18114 7.04224 6.0833 7.04224C7.98546 7.04224 9.52764 8.58449 9.52764 10.4867C9.52764 12.3888 7.98546 13.9312 6.0833 13.9312Z" fill="white"/>
<path d="M7.93417 9.73379H6.83747V8.63704C6.83747 8.48284 6.71746 8.36282 6.56326 8.36282H5.58645C5.43225 8.36282 5.31224 8.48284 5.31224 8.63704V9.73379H4.21553C4.06134 9.73379 3.94133 9.85381 3.94133 10.008V10.9849C3.94133 11.1391 4.06134 11.2591 4.21553 11.2591H5.31224V12.3558C5.31224 12.51 5.43225 12.6301 5.58645 12.6301H6.56326C6.71746 12.6301 6.83747 12.51 6.83747 12.3558V11.2591H7.93417C8.08837 11.2591 8.20838 11.1391 8.20838 10.9849V10.008C8.20838 9.85381 8.08837 9.73379 7.93417 9.73379Z" fill="white"/>
</svg>
