<svg width="76" height="76" viewBox="0 0 76 76" fill="none" xmlns="http://www.w3.org/2000/svg">
<rect width="76" height="76" rx="38" fill="#0094DA"/>
<g clip-path="url(#clip0_348_1647)">
<path fill-rule="evenodd" clip-rule="evenodd" d="M30.934 25.4981C32.8079 23.6242 35.3494 22.5714 37.9995 22.5714C40.6496 22.5714 43.1911 23.6242 45.065 25.4981C46.939 27.372 47.9916 29.9135 47.9916 32.5636C47.9916 33.8054 48.1943 34.9922 48.518 36.2517C48.6007 36.5075 48.6908 36.7478 48.7868 36.9736C48.9164 37.2783 49.1783 37.5414 49.6816 37.8634C49.8782 37.9892 50.0794 38.1048 50.3079 38.2362L50.5216 38.3593C50.8259 38.5355 51.1683 38.74 51.4954 38.982C52.6775 39.8573 53.1123 41.2061 53.0535 42.4222C52.9964 43.6055 52.4659 44.8389 51.4759 45.5833C51.4624 45.5941 51.4471 45.6057 51.4302 45.6183C51.39 45.6485 51.3397 45.6837 51.278 45.7232C51.1548 45.8025 50.9861 45.8992 50.7612 46.0069C50.312 46.2219 49.6348 46.4823 48.6387 46.7342C46.6503 47.2366 43.3571 47.7143 37.9995 47.7143C32.642 47.7143 29.3486 47.2366 27.3604 46.7342C26.3643 46.4823 25.6871 46.2219 25.2378 46.0069C25.0129 45.8992 24.8443 45.8025 24.7211 45.7232C24.6594 45.6837 24.6091 45.6485 24.5688 45.6183C24.5519 45.6057 24.5367 45.5941 24.5232 45.5833C23.5332 44.839 23.0028 43.6055 22.9456 42.4222C22.8869 41.2061 23.3215 39.8573 24.5038 38.982C24.8308 38.7399 25.1731 38.5355 25.4773 38.3593L25.6911 38.2361C25.9197 38.1048 26.121 37.9892 26.3175 37.8635C26.8207 37.5415 27.0826 37.2784 27.2121 36.9737C27.6745 35.8863 28.0074 34.4499 28.0074 32.5636C28.0074 29.9135 29.0601 27.372 30.934 25.4981ZM35.3442 49.3934C34.8997 49.2421 34.408 49.3781 34.1044 49.7362C33.8008 50.0944 33.7471 50.6018 33.969 51.0155C34.738 52.4494 36.2536 53.4286 37.9996 53.4286C39.7456 53.4286 41.2612 52.4494 42.0302 51.0155C42.2521 50.6018 42.1984 50.0944 41.8948 49.7362C41.5912 49.3781 41.0995 49.2421 40.655 49.3934C40.0761 49.5902 39.2209 49.7408 37.9996 49.7408C36.7783 49.7408 35.9231 49.5902 35.3442 49.3934Z" fill="white"/>
</g>
<defs>
<clipPath id="clip0_348_1647">
<rect width="32" height="32" fill="white" transform="translate(22 22)"/>
</clipPath>
</defs>
</svg>
