<svg width="28" height="28" viewBox="0 0 28 28" fill="none" xmlns="http://www.w3.org/2000/svg">
<g clip-path="url(#clip0_1_1057)">
<path d="M17.9499 13.2576C17.7448 13.2589 17.5401 13.276 17.3376 13.3085C16.5504 12.1311 15.5113 10.2149 15.3644 8.15137C16.5709 9.01675 17.6882 9.45588 18.7005 9.45588V9.45604C18.9867 9.45671 19.2717 9.42027 19.5484 9.34755C20.5977 9.02259 21.4528 8.2562 21.8902 7.24885C21.9521 7.09627 21.9067 6.9214 21.7784 6.81825C20.4113 5.7214 19.0576 5.26516 17.7568 5.46085H17.7569C16.7857 5.62757 15.8962 6.1086 15.225 6.82992C15.0819 5.27053 14.5682 4.13373 13.6879 3.45019L13.688 3.45002C12.8493 2.84371 11.7935 2.61974 10.7809 2.83323C10.6126 2.874 10.4947 3.02492 10.4957 3.1978C10.5043 4.75323 10.9529 5.97037 11.8293 6.8153C12.2363 7.20399 12.7181 7.50565 13.2456 7.70198C9.44725 9.1657 8.73385 13.8294 8.62864 16.2582C7.21283 16.387 5.96456 17.2394 5.32962 18.5112C4.69452 19.783 4.76288 21.2931 5.51066 22.502C6.25826 23.7112 7.57856 24.4469 9.0002 24.4469C10.4218 24.4469 11.742 23.7112 12.4897 22.502C13.2373 21.293 13.3059 19.783 12.6708 18.5112C12.0357 17.2395 10.7876 16.387 9.37177 16.2582C9.48142 13.7673 10.2606 8.85931 14.6158 8.09897C14.7387 10.2556 15.7387 12.2246 16.5665 13.5035C15.2728 13.9739 14.3028 15.0638 13.9856 16.4034C13.6685 17.743 14.0469 19.1521 14.9923 20.1527C15.9379 21.1532 17.3234 21.6106 18.6787 21.3695C20.0341 21.1285 21.177 20.2216 21.7198 18.9565C22.2624 17.6914 22.1318 16.2382 21.3724 15.0901C20.613 13.9418 19.3266 13.2531 17.9501 13.2576L17.9499 13.2576Z" fill="#161819"/>
</g>
<defs>
<clipPath id="clip0_1_1057">
<rect width="17.8903" height="22.661" fill="white" transform="translate(4.53221 2.26611)"/>
</clipPath>
</defs>
</svg>
