<svg width="8" height="10" viewBox="0 0 8 10" fill="none" xmlns="http://www.w3.org/2000/svg">
<g clip-path="url(#clip0_1_752)">
<path d="M7.66816 7.91854L7.6692 5.76605C7.66979 5.75084 7.67024 5.73533 7.67024 5.71982C7.67024 5.49595 7.59106 5.29054 7.45934 5.12996L5.70937 2.77023C5.61127 2.6046 5.43081 2.49337 5.22414 2.49337C4.91256 2.49337 4.65989 2.74582 4.65989 3.05719C4.65989 3.0586 4.65974 3.05993 4.65989 3.06134V4.0916C4.43216 4.08366 4.32383 3.91721 4.2994 3.6975V0.26332C4.2994 0.241356 4.29383 0.220207 4.28381 0.200172C4.23981 0.114019 4.10795 0.0513916 3.95212 0.0513916C3.79621 0.0513916 3.66428 0.114021 3.62034 0.200172C3.61033 0.220133 3.60476 0.241282 3.60476 0.26332V3.6975C3.58042 3.91721 3.47201 4.08366 3.24434 4.0916V3.05726C3.24434 2.74589 2.99138 2.49344 2.67994 2.49344C2.47343 2.49344 2.29296 2.60453 2.19486 2.7703L0.444742 5.12985C0.312955 5.29035 0.233787 5.49591 0.233787 5.7197C0.233787 5.73521 0.234232 5.75065 0.234974 5.76593L0.236013 7.91842L0.228073 8.665C0.228073 9.17872 0.644513 9.59509 1.15831 9.59509C1.41254 9.59509 1.64338 9.49298 1.81101 9.3275L3.00081 8.19446C3.01558 8.18132 3.0299 8.16774 3.04363 8.15357L3.04526 8.15216L3.04548 8.15194C3.16844 8.02357 3.24443 7.84971 3.24443 7.65788V5.28883C3.26395 5.04722 3.45651 4.85444 3.69812 4.83471H4.20628C4.44789 4.85444 4.64031 5.04724 4.65997 5.28883V7.65788C4.65997 7.84971 4.73588 8.02356 4.85892 8.15194L4.85914 8.15216L4.8607 8.15357C4.87428 8.16774 4.88875 8.18125 4.90352 8.19446L6.09332 9.3275C6.26117 9.49283 6.49181 9.59509 6.74617 9.59509C7.25997 9.59509 7.67641 9.17864 7.67641 8.665L7.66816 7.91854ZM5.18533 6.42369H5.35043V6.06587C5.35043 5.5914 5.73636 5.20577 6.21068 5.20577C6.68463 5.20577 7.0705 5.59157 7.0705 6.06587C7.0705 6.16457 6.99051 6.24434 6.89204 6.24434C6.7935 6.24434 6.71343 6.16457 6.71343 6.06587C6.71343 5.78835 6.48777 5.56254 6.21061 5.56254C5.93287 5.56254 5.70728 5.78828 5.70728 6.06587V6.42354H5.84508C5.90125 6.42354 5.91461 6.45589 5.87499 6.49567L5.58715 6.78337C5.54753 6.82307 5.48252 6.82307 5.44297 6.78337L5.15514 6.49567C5.11581 6.45604 5.12932 6.42369 5.18534 6.42369L5.18533 6.42369ZM7.21604 6.83048H7.05079V7.1883C7.05079 7.66254 6.66478 8.04819 6.19069 8.04819C5.7166 8.04819 5.33087 7.66239 5.33087 7.1883C5.33087 7.08961 5.41064 7.00984 5.50926 7.00984C5.60795 7.00984 5.68772 7.08961 5.68772 7.1883C5.68772 7.46574 5.91338 7.69132 6.19075 7.69132C6.46827 7.69132 6.69393 7.46566 6.69393 7.1883V6.83048H6.5562C6.4998 6.83048 6.48645 6.79798 6.52615 6.7585L6.81385 6.47059C6.85355 6.43097 6.91855 6.43097 6.95818 6.47059L7.24588 6.7585C7.28551 6.79798 7.27193 6.83048 7.21605 6.83048H7.21604Z" fill="white"/>
</g>
<defs>
<clipPath id="clip0_1_752">
<rect width="7.71255" height="9.84015" fill="white"/>
</clipPath>
</defs>
</svg>
