<svg width="29" height="16" viewBox="0 0 29 16" fill="none" xmlns="http://www.w3.org/2000/svg">
<g clip-path="url(#clip0_1_590)">
<path d="M27.3554 7.23703C26.6451 7.23703 26.0768 7.80537 26.0768 8.51567H2.77715V1.90938C2.77715 1.19908 2.20881 0.630737 1.49851 0.630737C0.788218 0.630737 0.219872 1.19908 0.219872 1.90938V14.1275C0.219872 14.5536 0.539473 14.9089 0.96587 14.9089L1.99576 14.9086C2.42189 14.9086 2.77715 14.5533 2.77715 14.1272V11.0727H26.0768V14.1272C26.0768 14.5534 26.432 14.9086 26.8228 14.9086H27.8526C28.2788 14.9086 28.634 14.5533 28.634 14.1272V8.51561C28.634 7.80507 28.0657 7.23697 27.3554 7.23697V7.23703Z" fill="#7CA9D8"/>
<path d="M4.55042 8.01876H7.1077C7.67604 8.01876 8.13758 7.55695 8.13758 6.98887C8.13758 6.42053 7.67578 5.95898 7.1077 5.95898H4.55042C3.98208 5.95898 3.52053 6.42079 3.52053 6.98887C3.52029 7.55696 3.98209 8.01876 4.55042 8.01876Z" fill="#7CA9D8"/>
<path d="M8.38938 3.79162C8.38938 4.83121 7.54653 5.67406 6.50694 5.67406C5.46709 5.67406 4.6245 4.83121 4.6245 3.79162C4.6245 2.75177 5.46709 1.90918 6.50694 1.90918C7.54653 1.90918 8.38938 2.75177 8.38938 3.79162Z" fill="#7CA9D8"/>
<path d="M25.1513 8.01801C25.1513 5.21223 22.8781 2.97449 20.1078 2.97449L11.2639 2.97424C10.0563 2.97424 9.09727 3.96874 9.09727 5.14082V8.0177L25.1513 8.01801Z" fill="#7CA9D8"/>
</g>
<defs>
<clipPath id="clip0_1_590">
<rect width="28.8581" height="15.539" fill="white"/>
</clipPath>
</defs>
</svg>
