<svg width="9" height="10" viewBox="0 0 9 10" fill="none" xmlns="http://www.w3.org/2000/svg">
<g clip-path="url(#clip0_1_719)">
<path d="M2.64481 7.49383C1.94832 7.68067 1.27755 7.4363 1.49337 8.24063C1.7091 9.04495 2.44864 9.54561 3.14516 9.35876C3.84165 9.17192 4.23134 8.36848 4.01554 7.56407C3.79973 6.75975 3.34134 7.307 2.64483 7.49383L2.64481 7.49383Z" fill="white"/>
<path d="M2.50891 6.99684C3.81808 6.64569 3.47803 6.20378 3.62231 5.32736C3.75765 4.50556 2.59405 1.98559 1.26064 2.34339C-0.0727306 2.70113 0.19005 5.45795 0.709452 6.10888C1.28509 6.83025 1.19956 7.34819 2.50887 6.99688L2.50891 6.99684Z" fill="white"/>
<path d="M5.87282 5.35467C5.17633 5.16783 4.71792 4.62059 4.50219 5.42492C4.28646 6.22925 4.67615 7.03285 5.37258 7.2196C6.06907 7.40644 6.80847 6.90588 7.02436 6.10147C7.24001 5.29714 6.56917 5.54143 5.87284 5.35468L5.87282 5.35467Z" fill="white"/>
<path d="M7.25772 0.204085C5.92435 -0.153575 4.76071 2.36636 4.89605 3.18805C5.04032 4.06447 4.70028 4.5063 6.00944 4.85753C7.31861 5.20868 7.23322 4.69081 7.80894 3.96945C8.32826 3.31848 8.59106 0.561765 7.25767 0.204167L7.25772 0.204085Z" fill="white"/>
</g>
<defs>
<clipPath id="clip0_1_719">
<rect width="8.52047" height="9.5036" fill="white"/>
</clipPath>
</defs>
</svg>
