<svg width="76" height="76" viewBox="0 0 76 76" fill="none" xmlns="http://www.w3.org/2000/svg">
<rect width="76" height="76" rx="38" fill="#0094DA"/>
<path fill-rule="evenodd" clip-rule="evenodd" d="M40.833 52.1667H35.1663C29.8238 52.1667 27.1525 52.1667 25.4927 50.5069C23.833 48.8473 23.833 46.1759 23.833 40.8333V35.1667C23.833 29.8241 23.833 27.1528 25.4927 25.4931C27.1525 23.8333 29.8378 23.8333 35.2086 23.8333C36.0671 23.8333 36.755 23.8333 37.3338 23.8569C37.3149 23.9702 37.3048 24.0857 37.3044 24.2025L37.2913 28.2179C37.2912 29.7721 37.2911 31.1457 37.44 32.2528C37.6013 33.4529 37.9718 34.6528 38.9511 35.6321C39.9303 36.6114 41.1302 36.9819 42.3303 37.1432C43.4376 37.2921 44.811 37.292 46.3652 37.2918H46.4997H52.106C52.1663 38.0487 52.1663 38.9777 52.1663 40.2141V40.8333C52.1663 46.1759 52.1663 48.8473 50.5066 50.5069C48.847 52.1667 46.1755 52.1667 40.833 52.1667Z" fill="white"/>
<path d="M48.4152 31.7903L42.8069 26.7428C41.2092 25.3048 40.4104 24.5858 39.43 24.2096L39.417 28.0835C39.417 31.4226 39.417 33.0922 40.4543 34.1295C41.4917 35.1668 43.1612 35.1668 46.5003 35.1668H51.5721C51.0584 34.1692 50.1389 33.3415 48.4152 31.7903Z" fill="white"/>
</svg>
