<svg width="24" height="24" viewBox="0 0 24 24" fill="none" xmlns="http://www.w3.org/2000/svg">
<g clip-path="url(#clip0_48_75)">
<path d="M1.50726 14.745C1.49725 14.6539 1.49851 14.562 1.51101 14.4713L1.55976 14.1188L2.26101 9.2175C2.30043 8.94976 2.43443 8.70499 2.63873 8.52752C2.84303 8.35004 3.10414 8.25159 3.37476 8.25H9.55476C9.32109 7.59303 8.89019 7.02428 8.32098 6.62154C7.75177 6.21879 7.07204 6.00172 6.37476 6H3.37476C2.48008 6.00139 1.62244 6.35741 0.989804 6.99005C0.35717 7.62268 0.00114436 8.48032 -0.000244131 9.375L-0.000244131 12.375C-0.000287681 12.8725 0.141505 13.3597 0.408508 13.7794C0.675512 14.1992 1.05666 14.5342 1.50726 14.745Z" fill="#707D8B"/>
<path d="M4.87476 5.25C5.47149 5.25 6.04379 5.01295 6.46575 4.59099C6.8877 4.16903 7.12476 3.59674 7.12476 3V2.25C7.12476 1.65326 6.8877 1.08097 6.46575 0.65901C6.04379 0.237053 5.47149 0 4.87476 0C4.27802 0 3.70572 0.237053 3.28377 0.65901C2.86181 1.08097 2.62476 1.65326 2.62476 2.25V3C2.62476 3.59674 2.86181 4.16903 3.28377 4.59099C3.70572 5.01295 4.27802 5.25 4.87476 5.25Z" fill="#707D8B"/>
<path d="M11.2459 14.6775L11.9959 9.4275C12.0038 9.37424 12.0002 9.31991 11.9853 9.26816C11.9704 9.21642 11.9446 9.16845 11.9097 9.1275C11.8736 9.08771 11.8296 9.05584 11.7805 9.03389C11.7315 9.01195 11.6784 9.00041 11.6247 9H3.37469C3.28433 9.00001 3.19703 9.03265 3.12882 9.0919C3.06061 9.15115 3.01608 9.23304 3.00344 9.3225L2.25344 14.5725C2.24557 14.6258 2.2492 14.6801 2.26408 14.7318C2.27895 14.7836 2.30473 14.8315 2.33969 14.8725C2.3758 14.9123 2.41978 14.9442 2.46883 14.9661C2.51788 14.9881 2.57095 14.9996 2.62469 15H10.8747C10.965 15 11.0523 14.9674 11.1206 14.9081C11.1888 14.8488 11.2333 14.767 11.2459 14.6775ZM8.24969 12.375H7.49969V13.125C7.49969 13.2245 7.46018 13.3198 7.38985 13.3902C7.31952 13.4605 7.22414 13.5 7.12469 13.5C7.02523 13.5 6.92985 13.4605 6.85952 13.3902C6.78919 13.3198 6.74969 13.2245 6.74969 13.125V12.375H5.99969C5.90023 12.375 5.80485 12.3355 5.73452 12.2652C5.66419 12.1948 5.62469 12.0995 5.62469 12C5.62469 11.9005 5.66419 11.8052 5.73452 11.7348C5.80485 11.6645 5.90023 11.625 5.99969 11.625H6.74969V10.875C6.74969 10.7755 6.78919 10.6802 6.85952 10.6098C6.92985 10.5395 7.02523 10.5 7.12469 10.5C7.22414 10.5 7.31952 10.5395 7.38985 10.6098C7.46018 10.6802 7.49969 10.7755 7.49969 10.875V11.625H8.24969C8.34914 11.625 8.44452 11.6645 8.51485 11.7348C8.58518 11.8052 8.62469 11.9005 8.62469 12C8.62469 12.0995 8.58518 12.1948 8.51485 12.2652C8.44452 12.3355 8.34914 12.375 8.24969 12.375Z" fill="#707D8B"/>
<path d="M20.6246 15H17.6246C16.9273 15.0017 16.2476 15.2188 15.6784 15.6215C15.1091 16.0243 14.6782 16.593 14.4446 17.25H20.6246C20.8952 17.2516 21.1563 17.35 21.3606 17.5275C21.5649 17.705 21.6989 17.9498 21.7383 18.2175L22.4396 23.115L22.4883 23.4675C22.5008 23.5595 22.5021 23.6527 22.4921 23.745C22.9427 23.5342 23.3238 23.1992 23.5908 22.7794C23.8578 22.3597 23.9996 21.8725 23.9996 21.375V18.375C23.9982 17.4803 23.6422 16.6227 23.0095 15.99C22.3769 15.3574 21.5193 15.0014 20.6246 15Z" fill="#707D8B"/>
<path d="M20.6247 18H12.3747C12.3209 18.0004 12.2679 18.0119 12.2188 18.0339C12.1698 18.0558 12.1258 18.0877 12.0897 18.1275C12.0547 18.1685 12.029 18.2164 12.0141 18.2682C11.9992 18.3199 11.9956 18.3742 12.0034 18.4275L12.7534 23.6775C12.7661 23.767 12.8106 23.8488 12.8788 23.9081C12.947 23.9674 13.0343 24 13.1247 24H21.3747C21.4284 23.9996 21.4815 23.9881 21.5305 23.9661C21.5796 23.9442 21.6236 23.9123 21.6597 23.8725C21.6946 23.8315 21.7204 23.7836 21.7353 23.7318C21.7502 23.6801 21.7538 23.6258 21.7459 23.5725L20.9959 18.3225C20.9833 18.233 20.9388 18.1512 20.8706 18.0919C20.8023 18.0326 20.715 18 20.6247 18Z" fill="#707D8B"/>
<path d="M16.8748 11.25V12C16.8748 12.5967 17.1118 13.169 17.5338 13.591C17.9557 14.0129 18.528 14.25 19.1248 14.25C19.7215 14.25 20.2938 14.0129 20.7157 13.591C21.1377 13.169 21.3748 12.5967 21.3748 12V11.25C21.3748 10.6533 21.1377 10.081 20.7157 9.65901C20.2938 9.23705 19.7215 9 19.1248 9C18.528 9 17.9557 9.23705 17.5338 9.65901C17.1118 10.081 16.8748 10.6533 16.8748 11.25Z" fill="#707D8B"/>
<path d="M4.31917 15.9223C4.23195 15.9713 4.16739 16.0526 4.13935 16.1486C4.11131 16.2446 4.12202 16.3478 4.16917 16.4361C4.4167 16.8984 4.70351 17.3387 5.02642 17.7519C5.05638 17.7909 5.09385 17.8234 5.1366 17.8476C5.17935 17.8719 5.22653 17.8872 5.27534 17.8929C5.32414 17.8986 5.37359 17.8944 5.42075 17.8806C5.46792 17.8668 5.51184 17.8437 5.54992 17.8127C5.6274 17.7493 5.67698 17.658 5.68806 17.5585C5.69913 17.459 5.67082 17.3591 5.60917 17.2802C5.31306 16.9017 5.05021 16.4983 4.82355 16.0746C4.80074 16.0312 4.76952 15.9927 4.7317 15.9615C4.69388 15.9303 4.65023 15.9069 4.60328 15.8927C4.55633 15.8785 4.50702 15.8739 4.45825 15.8789C4.40947 15.884 4.36219 15.8988 4.31917 15.9223Z" fill="#707D8B"/>
<path d="M6.58823 18.3297C6.55187 18.2969 6.5093 18.2716 6.46305 18.2555C6.41679 18.2393 6.36777 18.2325 6.31887 18.2356C6.26996 18.2386 6.22216 18.2514 6.17826 18.2732C6.13436 18.2949 6.09525 18.3252 6.06323 18.3623C5.99776 18.4379 5.96445 18.5362 5.97041 18.636C5.97636 18.7358 6.02111 18.8294 6.09511 18.8967C6.48209 19.2459 6.8988 19.5608 7.34048 19.8376C7.39867 19.8742 7.46599 19.8937 7.53473 19.8938C7.59874 19.8937 7.66163 19.8771 7.71729 19.8455C7.77295 19.8138 7.81948 19.7684 7.85236 19.7135C7.90404 19.6278 7.92018 19.5253 7.89734 19.4279C7.8745 19.3306 7.81448 19.2459 7.73011 19.1922C7.32503 18.9386 6.94294 18.65 6.58823 18.3297Z" fill="#707D8B"/>
<path d="M8.99987 19.8377C8.95423 19.8197 8.90545 19.8109 8.85638 19.8118C8.80731 19.8128 8.75892 19.8235 8.71401 19.8433C8.66911 19.8631 8.62859 19.8917 8.59481 19.9273C8.56104 19.9629 8.53467 20.0048 8.51724 20.0507C8.48058 20.1437 8.48198 20.2473 8.52114 20.3393C8.5603 20.4312 8.63406 20.504 8.72649 20.542C9.20775 20.7359 9.70535 20.8865 10.2134 20.992C10.238 20.9971 10.2632 20.9996 10.2884 20.9995C10.3747 20.9986 10.4581 20.9679 10.5244 20.9126C10.5908 20.8573 10.636 20.7809 10.6525 20.6961C10.6724 20.5986 10.6532 20.4972 10.599 20.4137C10.5447 20.3303 10.4598 20.2716 10.3626 20.2502C9.89705 20.1534 9.44101 20.0153 8.99987 19.8377Z" fill="#707D8B"/>
<path d="M19.1771 8.0626C19.2087 8.12155 19.2557 8.17084 19.3131 8.20524C19.3705 8.23964 19.4361 8.25786 19.503 8.25797C19.5659 8.25803 19.6278 8.24175 19.6826 8.21072C19.7693 8.16096 19.833 8.07927 19.8602 7.98312C19.8874 7.88697 19.8759 7.784 19.8281 7.69622C19.5778 7.23553 19.2882 6.79728 18.9626 6.38635C18.9323 6.34751 18.8946 6.31514 18.8515 6.29116C18.8085 6.26719 18.7611 6.25209 18.7122 6.24678C18.6632 6.24146 18.6137 6.24603 18.5665 6.26022C18.5194 6.2744 18.4755 6.29791 18.4376 6.32935C18.3607 6.39331 18.3118 6.48477 18.3014 6.58424C18.291 6.68371 18.3198 6.78332 18.3817 6.86185C18.6807 7.23862 18.9468 7.64034 19.1771 8.0626Z" fill="#707D8B"/>
<path d="M10.7247 3.8558C10.7435 3.85591 10.7623 3.85453 10.781 3.85168C11.2504 3.77967 11.7252 3.7488 12.2 3.75943C12.2989 3.75943 12.394 3.72068 12.4648 3.65147C12.5356 3.58226 12.5764 3.48808 12.5786 3.38912C12.5808 3.29015 12.5442 3.19425 12.4766 3.12195C12.409 3.04965 12.3157 3.0067 12.2168 3.0023C11.6991 2.9905 11.1814 3.02413 10.6696 3.1028C10.5764 3.11837 10.4923 3.16818 10.434 3.24247C10.3756 3.31676 10.347 3.41019 10.3539 3.50443C10.3608 3.59867 10.4027 3.68694 10.4712 3.75194C10.5398 3.81693 10.6302 3.85397 10.7247 3.8558Z" fill="#707D8B"/>
<path d="M13.6122 3.9166C14.0782 4.01077 14.5348 4.14617 14.9768 4.32123C15.0196 4.33831 15.0653 4.34709 15.1114 4.3471C15.187 4.34683 15.2607 4.32358 15.3227 4.28044C15.3847 4.23731 15.4321 4.17633 15.4587 4.1056C15.4946 4.01238 15.4925 3.90881 15.4529 3.81711C15.4133 3.72541 15.3393 3.65289 15.2468 3.6151C14.7642 3.42434 14.2656 3.27664 13.7569 3.17373C13.7087 3.16423 13.659 3.16443 13.6107 3.17429C13.5625 3.18416 13.5168 3.2035 13.4761 3.2312C13.4354 3.2589 13.4006 3.29441 13.3738 3.33565C13.3469 3.3769 13.3285 3.42307 13.3197 3.47148C13.3 3.56924 13.3197 3.67081 13.3745 3.75414C13.4292 3.83748 13.5147 3.89585 13.6122 3.9166Z" fill="#707D8B"/>
<path d="M7.92012 4.8218C7.98266 4.82181 8.04415 4.80567 8.09862 4.77493C8.514 4.54273 8.94922 4.34797 9.39912 4.19293C9.4933 4.15965 9.57058 4.09062 9.61423 4.00078C9.65789 3.91095 9.6644 3.80753 9.63237 3.71293C9.6174 3.66612 9.59325 3.62277 9.56134 3.58541C9.52942 3.54805 9.49038 3.51742 9.4465 3.49532C9.40261 3.47322 9.35476 3.46009 9.30574 3.45669C9.25672 3.4533 9.20751 3.45971 9.161 3.47555C8.66956 3.64483 8.19419 3.85755 7.7405 4.11118C7.65362 4.16062 7.58957 4.24213 7.56209 4.33824C7.53461 4.43435 7.54588 4.53741 7.5935 4.6253C7.62512 4.68449 7.67219 4.73402 7.7297 4.76862C7.7872 4.80321 7.85301 4.82159 7.92012 4.8218Z" fill="#707D8B"/>
<path d="M16.2516 4.96169C16.6585 5.21312 17.0427 5.49944 17.3999 5.81744C17.4365 5.85004 17.4793 5.87497 17.5258 5.89076C17.5722 5.90655 17.6214 5.91289 17.6703 5.90939C17.7192 5.9059 17.7669 5.89264 17.8107 5.87041C17.8544 5.84818 17.8932 5.81742 17.9249 5.77994C17.9899 5.7039 18.0226 5.60548 18.0161 5.50566C18.0096 5.40583 17.9643 5.3125 17.89 5.24556C17.5004 4.89875 17.0813 4.58657 16.6375 4.31256C16.5957 4.28691 16.5492 4.26984 16.5007 4.26237C16.4522 4.25489 16.4028 4.25716 16.3552 4.26903C16.3076 4.2809 16.2628 4.30214 16.2236 4.33151C16.1843 4.36087 16.1512 4.39778 16.1264 4.44006C16.0747 4.52606 16.0588 4.62894 16.0822 4.72651C16.1057 4.82409 16.1665 4.90855 16.2516 4.96169Z" fill="#707D8B"/>
</g>
<defs>
<clipPath id="clip0_48_75">
<rect width="24" height="24" fill="white"/>
</clipPath>
</defs>
</svg>
