<svg width="27" height="26" viewBox="0 0 27 26" fill="none" xmlns="http://www.w3.org/2000/svg">
<circle cx="21" cy="6" r="6" fill="url(#paint0_linear_1_388)"/>
<path fill-rule="evenodd" clip-rule="evenodd" d="M2 14.015C2 8.74712 6.21 4 12.02 4C17.7 4 22 8.65699 22 13.985C22 20.1642 16.96 24 12 24C10.36 24 8.54 23.5593 7.08 22.698C6.57 22.3876 6.14 22.1572 5.59 22.3375L3.57 22.9384C3.06 23.0986 2.6 22.698 2.75 22.1572L3.42 19.9139C3.53 19.6034 3.51 19.2729 3.35 19.0125C2.49 17.4301 2 15.6975 2 14.015ZM10.7 14.015C10.7 14.7261 11.27 15.2969 11.98 15.307C12.69 15.307 13.26 14.7261 13.26 14.025C13.26 13.314 12.69 12.7431 11.98 12.7431C11.28 12.7331 10.7 13.314 10.7 14.015ZM15.31 14.025C15.31 14.7261 15.88 15.307 16.59 15.307C17.3 15.307 17.87 14.7261 17.87 14.025C17.87 13.314 17.3 12.7431 16.59 12.7431C15.88 12.7431 15.31 13.314 15.31 14.025ZM7.37 15.307C6.67 15.307 6.09 14.7261 6.09 14.025C6.09 13.314 6.66 12.7431 7.37 12.7431C8.08 12.7431 8.65 13.314 8.65 14.025C8.65 14.7261 8.08 15.2969 7.37 15.307Z" fill="#707D8B"/>
<defs>
<linearGradient id="paint0_linear_1_388" x1="26.3766" y1="0.701298" x2="16.4026" y2="9.58442" gradientUnits="userSpaceOnUse">
<stop stop-color="#96FBC4"/>
<stop offset="1" stop-color="#F9F586"/>
</linearGradient>
</defs>
</svg>
