<svg width="28" height="28" viewBox="0 0 28 28" fill="none" xmlns="http://www.w3.org/2000/svg">
<path d="M11.6647 13.0755H4.10177C3.68412 13.0755 3.34547 12.7372 3.34547 12.3192V4.75629C3.34547 4.33831 3.68412 4 4.10177 4H11.6647C12.0824 4 12.421 4.33831 12.421 4.75629V12.3192C12.421 12.7372 12.0824 13.0755 11.6647 13.0755ZM4.85806 11.5629H10.9084V5.51259H4.85806V11.5629Z" fill="white"/>
<path d="M6.46587 23.9998C6.2724 23.9998 6.07877 23.9258 5.93106 23.7781L3.56645 21.414C3.27102 21.1186 3.27102 20.64 3.56645 20.3446C3.86187 20.0492 4.34046 20.0492 4.63589 20.3446L6.46569 22.174L11.1292 17.5101C11.4247 17.2147 11.9032 17.2147 12.1987 17.5101C12.4941 17.8055 12.4941 18.2841 12.1987 18.5795L7.00011 23.7785C6.8524 23.9262 6.65894 24 6.46548 24L6.46587 23.9998Z" fill="white"/>
<path d="M23.7655 9.29408H16.2025C15.7849 9.29408 15.4462 8.95577 15.4462 8.53778C15.4462 8.11979 15.7849 7.78149 16.2025 7.78149H23.7655C24.1831 7.78149 24.5218 8.11979 24.5218 8.53778C24.5218 8.95577 24.1831 9.29408 23.7655 9.29408Z" fill="white"/>
<path d="M23.7655 20.2183H16.2025C15.7849 20.2183 15.4462 19.88 15.4462 19.462C15.4462 19.044 15.7849 18.7057 16.2025 18.7057H23.7655C24.1831 18.7057 24.5218 19.044 24.5218 19.462C24.5218 19.88 24.1831 20.2183 23.7655 20.2183Z" fill="white"/>
</svg>
