<svg width="32" height="24" viewBox="0 0 32 24" fill="none" xmlns="http://www.w3.org/2000/svg">
<g clip-path="url(#clip0_13_24)">
<path fill-rule="evenodd" clip-rule="evenodd" d="M20.4123 10.8454C18.2717 8.73139 14.8011 8.73139 12.6606 10.8454C10.52 12.9594 10.52 16.3868 12.6606 18.5007C14.8012 20.6147 18.2718 20.6147 20.4123 18.5007C22.5528 16.3867 22.5529 12.9593 20.4123 10.8454ZM11.5175 9.71642C14.2895 6.97888 18.7835 6.97888 21.5555 9.71642C24.1341 12.2631 24.3139 16.2818 22.0948 19.0334L25.3676 22.2655C25.6832 22.5773 25.6832 23.0827 25.3676 23.3944C25.0519 23.7061 24.5401 23.7061 24.2245 23.3944L20.9517 20.1623C18.1652 22.3538 14.0962 22.1762 11.5175 19.6297C8.74548 16.8921 8.74548 12.454 11.5175 9.71642Z" fill="#454647"/>
<path d="M25.1895 0.00976562C29.175 0.211793 32.3445 3.50724 32.3447 7.54297C32.3447 11.5789 29.1752 14.8751 25.1895 15.0771L25.1064 15.0791V13.4014C28.2049 13.2426 30.668 10.6809 30.668 7.54297C30.6677 4.30303 28.0417 1.67702 24.8018 1.67676H7.8877C4.64775 1.67702 2.02175 4.30303 2.02148 7.54297C2.02148 10.7833 4.64834 13.4102 7.88867 13.4102H8.10645V15.0869H7.88867L7.5 15.0771C3.51426 14.8751 0.344727 11.5789 0.344727 7.54297C0.344989 3.37722 3.72195 0.000263349 7.8877 0H24.8018L25.1895 0.00976562Z" fill="#454647"/>
</g>
<defs>
<clipPath id="clip0_13_24">
<rect width="32" height="24" fill="white"/>
</clipPath>
</defs>
</svg>
