<svg width="24" height="24" viewBox="0 0 24 24" fill="none" xmlns="http://www.w3.org/2000/svg">
<path d="M7.74496 13.3561C7.11101 13.3561 6.50312 13.608 6.05466 14.0563C5.60641 14.5046 5.35466 15.1127 5.35466 15.7466C5.35466 16.3806 5.6064 16.9887 6.05466 17.4369C6.50313 17.8852 7.11101 18.1371 7.74496 18.1371C8.37892 18.1371 8.98703 17.8852 9.43527 17.4369C9.88374 16.9887 10.1355 16.3806 10.1355 15.7466C10.1355 15.1127 9.88375 14.5045 9.43527 14.0563C8.98702 13.608 8.37892 13.3561 7.74496 13.3561ZM7.74496 17.0083C7.41039 17.0083 7.08942 16.8755 6.85279 16.6388C6.61616 16.4022 6.48327 16.0812 6.48327 15.7466C6.48327 15.4121 6.61615 15.0911 6.85279 14.8545C7.08943 14.6178 7.41043 14.4849 7.74496 14.4849C8.07975 14.4849 8.40051 14.6178 8.63714 14.8545C8.87377 15.0911 9.00665 15.4121 9.00665 15.7466C9.00665 16.0812 8.87378 16.4022 8.63714 16.6388C8.4005 16.8754 8.07972 17.0083 7.74496 17.0083Z" fill="#878B93"/>
<path d="M21.4015 14.2031V8.63672C21.4015 7.87653 21.0995 7.14743 20.562 6.60967C20.0242 6.07211 19.2951 5.77012 18.5349 5.77012H9.16148V5.362C9.16148 5.16203 8.99948 5.00003 8.79973 5.00003H8.22442C8.02424 5.00003 7.86138 5.1616 7.85965 5.362V5.7794C5.16303 5.86914 4.5198 7.99371 4.45784 10.7089H4.12089C3.63964 10.708 3.17802 10.8985 2.83741 11.2385C2.4968 11.5784 2.30546 12.0398 2.30546 12.5209V14.296C2.06128 14.4468 1.94652 14.741 2.02396 15.0172C2.10161 15.2935 2.3527 15.4851 2.63958 15.4868H4.93109C5.01414 14.5392 5.5683 13.6972 6.40547 13.2457C7.24264 12.7945 8.25067 12.7945 9.08785 13.2457C9.92502 13.6972 10.4792 14.5392 10.5622 15.4868H14.8144C14.903 14.5439 15.4578 13.7078 16.2924 13.2602C17.127 12.8124 18.1303 12.8124 18.9649 13.2602C19.7993 13.7078 20.3543 14.5439 20.4428 15.4868H21.4014C21.7386 15.4633 22 15.1831 22 14.845C22 14.507 21.7386 14.2268 21.4014 14.2033L21.4015 14.2031ZM9.32273 7.52012L9.30418 10.1859C9.30073 10.5675 8.99312 10.8766 8.6113 10.8816L5.36417 10.8475L5.36438 10.8477C5.24358 10.8462 5.12883 10.7951 5.04728 10.706C4.96596 10.6169 4.92498 10.498 4.93446 10.3777C5.10445 8.29644 4.86953 6.62016 8.40117 6.62016C9.43703 6.62016 9.3257 7.32536 9.32272 7.52012L9.32273 7.52012ZM11.5556 14.4102H11.2463V6.69455H11.5556V14.4102ZM14.5954 10.121C14.5954 10.2493 14.5441 10.3725 14.4528 10.4631C14.3618 10.5537 14.2382 10.6042 14.1099 10.6033H13.1264C12.9963 10.6068 12.8704 10.5574 12.7772 10.4666C12.684 10.3757 12.6316 10.2511 12.6316 10.121V7.90994C12.6316 7.77943 12.684 7.65453 12.7772 7.56329C12.8701 7.47183 12.9961 7.42178 13.1264 7.42437H14.1099C14.2386 7.42437 14.362 7.4755 14.4531 7.56653C14.5441 7.65756 14.5954 7.78116 14.5954 7.90994V10.121ZM18.2198 10.121H18.2196C18.2196 10.3874 18.0037 10.6033 17.7373 10.6033H16.7509C16.6223 10.6042 16.4989 10.5537 16.4077 10.4631C16.3166 10.3725 16.2653 10.2493 16.2653 10.121V7.90994C16.2653 7.64159 16.4827 7.42437 16.7509 7.42437H17.7373C18.0041 7.42609 18.2196 7.64288 18.2196 7.90994L18.2198 10.121Z" fill="#878B93"/>
<path d="M17.6287 13.3561C16.9947 13.3561 16.3866 13.608 15.9384 14.0563C15.4901 14.5046 15.2382 15.1127 15.2382 15.7466C15.2382 16.3806 15.4901 16.9887 15.9384 17.4369C16.3866 17.8852 16.9947 18.1371 17.6287 18.1371C18.2626 18.1371 18.8707 17.8852 19.319 17.4369C19.7672 16.9887 20.0192 16.3806 20.0192 15.7466C20.0192 15.1127 19.7673 14.5045 19.319 14.0563C18.8707 13.608 18.2626 13.3561 17.6287 13.3561ZM17.6287 17.0083C17.2941 17.0083 16.9731 16.8755 16.7365 16.6388C16.4999 16.4022 16.367 16.0812 16.367 15.7466C16.367 15.4121 16.4999 15.0911 16.7365 14.8545C16.9731 14.6178 17.2941 14.4849 17.6287 14.4849C17.9633 14.4849 18.2842 14.6178 18.5209 14.8545C18.7575 15.0911 18.8904 15.4121 18.8904 15.7466C18.8904 16.0812 18.7575 16.4022 18.5209 16.6388C18.2842 16.8755 17.9632 17.0083 17.6287 17.0083Z" fill="#878B93"/>
</svg>
